<?xml version="1.0" standalone="no"?><!DOCTYPE svg PUBLIC "-//W3C//DTD SVG 1.1//EN" "http://www.w3.org/Graphics/SVG/1.1/DTD/svg11.dtd"><svg t="1743474083861" class="icon" viewBox="0 0 1024 1024" version="1.1" xmlns="http://www.w3.org/2000/svg" p-id="3657" xmlns:xlink="http://www.w3.org/1999/xlink" width="64" height="64"><path d="M892.7 904H157.3v-51.3h735.4V904z m-66.4-110.7H226.8c-14.2 0-25.6-11.5-25.6-25.6V382.3c0-86.9 33.8-168.6 95.3-230.1C358 90.8 439.7 56.9 526.6 56.9s168.6 33.8 230.1 95.3S852 295.4 852 382.3v385.4c-0.1 14.2-11.5 25.6-25.7 25.6z m-573.8-51.2h548.2V382.3c0-73.2-28.5-142-80.3-193.8-51.8-51.8-120.6-80.3-193.8-80.3-73.2 0-142 28.5-193.8 80.3-51.8 51.8-80.3 120.6-80.3 193.8v359.8z m186.3-71.6c-4.5 0-8.9-1.2-13-3.5-9.9-5.8-14.7-17.5-11.8-28.6l42.4-161.1-67.2-17.9c-8.9-2.4-15.9-9.4-18.2-18.3-2.3-8.9 0.3-18.4 6.9-24.9l201.4-195.6c8.3-8 20.9-9.5 30.8-3.7 9.9 5.8 14.8 17.5 11.9 28.7l-42.4 161.1 68.2 18.3c8.9 2.4 15.9 9.4 18.2 18.4 2.3 8.9-0.4 18.4-7 24.9l-202.4 195c-4.9 4.8-11.3 7.2-17.8 7.2z m7.3-249l48.2 12.8c13.7 3.6 21.8 17.6 18.2 31.3l-25.6 97.3 103.9-100.1-49.1-13.2c-13.6-3.7-21.7-17.6-18.1-31.3l25.4-96.7-102.9 99.9z" p-id="3658"></path></svg>