<?xml version="1.0" standalone="no"?><!DOCTYPE svg PUBLIC "-//W3C//DTD SVG 1.1//EN" "http://www.w3.org/Graphics/SVG/1.1/DTD/svg11.dtd"><svg t="1743676160800" class="icon" viewBox="0 0 1024 1024" version="1.1" xmlns="http://www.w3.org/2000/svg" p-id="11196" xmlns:xlink="http://www.w3.org/1999/xlink" width="64" height="64"><path d="M1010.606887 950.69733L825.64459 765.493016c29.808557-36.201867 54.756584-76.034005 72.706257-119.839273a466.00576 466.00576 0 0 0 35.294299-178.488313c0-62.339817-12.484098-121.009026-34.376647-176.078217l-0.917652-2.440349a468.466277 468.466277 0 0 0-99.479504-149.325138l-2.127742-2.178163c-42.282571-42.857363-94.306368-77.526449-151.190694-101.254303C590.191278 13.109311 529.948951 0 466.973837 0 338.290821 0 221.476775 52.921281 136.911634 137.143563A468.839388 468.839388 0 0 0 35.294304 288.616612c-22.507679 55.654068-35.294299 115.866143-35.294299 178.488313 0 62.047378 12.776536 121.95693 34.67917 176.390824l0.605045 2.127742a467.21585 467.21585 0 0 0 253.110546 252.737435c55.059107 23.10264 115.603956 35.294299 178.568987 35.2943s123.519963-12.171491 178.57907-35.2943a461.407417 461.407417 0 0 0 119.869525-72.363397l185.264819 185.224483a42.585093 42.585093 0 1 0 59.92972-60.504514zM747.291246 747.371914l-0.947904 0.625213c-36.06069 36.383381-79.72478 65.475967-127.815784 86.037418a401.971817 401.971817 0 0 1-303.420049 0 407.467643 407.467643 0 0 1-128.451081-86.662631c-36.695987-37.311116-66.121349-80.339909-86.370193-129.076295l-0.635297-1.583201a400.771811 400.771811 0 0 1 0.635297-301.433484c20.248844-48.070836 49.412019-91.765178 86.370193-127.775448a392.432272 392.432272 0 0 1 280.337577-116.713206 405.571835 405.571835 0 0 1 151.553721 29.737969A394.086062 394.086062 0 0 1 747.291246 187.563991l2.208415 1.895808c35.435477 35.415308 63.912934 78.776876 83.839087 125.849387l0.947904 2.531105c18.353036 46.185112 29.112755 96.161839 29.112755 149.294886a390.516296 390.516296 0 0 1-30.060659 151.180611 384.486013 384.486013 0 0 1-86.047502 129.076294z" p-id="11197"></path><path d="M349.242138 188.864838a304.599887 304.599887 0 0 0-51.106145 27.680814c-15.852182 11.556362-30.978311 23.455583-44.410313 36.796828v0.302523a270.253492 270.253492 0 0 0-37.119519 44.702751v0.312607a277.372856 277.372856 0 0 0-27.983337 50.783454 25.764838 25.764838 0 0 0 47.455707 20.077415 219.722139 219.722139 0 0 1 22.507678-42.585093v0.615129c9.126097-13.684104 19.774892-25.855595 31.028732-37.71448a214.498583 214.498583 0 0 1 37.724564-30.413602c12.776536-9.42862 27.388376-16.729498 41.980048-22.810201 12.776536-6.050451 19.159762-20.984982 13.99671-34.064041-6.050451-13.381581-20.682459-18.85724-34.074125-13.684104zM743.509714 441.289666a25.391727 25.391727 0 0 0-25.593409 25.855596c0 33.146389-6.695833 65.072604-19.472369 96.101335v1.825219a262.186223 262.186223 0 0 1-54.454062 79.664276c-24.030376 23.717769-51.721275 41.344751-81.227309 54.131371-30.423686 12.46393-63.277637 19.462285-95.798812 19.462285-14.289149 0-25.855595 10.941233-25.855596 25.210213A26.027025 26.027025 0 0 0 466.973837 769.415725a303.107442 303.107442 0 0 0 213.560763-88.195412c28.598467-28.588382 49.885971-62.037294 65.102856-97.321509v-0.907568a299.749442 299.749442 0 0 0 23.425331-115.866143 25.593409 25.593409 0 0 0-25.563157-25.865679z" p-id="11198"></path></svg>