<?xml version="1.0" standalone="no"?><!DOCTYPE svg PUBLIC "-//W3C//DTD SVG 1.1//EN" "http://www.w3.org/Graphics/SVG/1.1/DTD/svg11.dtd"><svg t="1743475643995" class="icon" viewBox="0 0 1024 1024" version="1.1" xmlns="http://www.w3.org/2000/svg" p-id="40589" xmlns:xlink="http://www.w3.org/1999/xlink" width="64" height="64"><path d="M459.008 486.912a31.936 31.936 0 0 0-0.192 45.12l0.192 0.192 308.352 308.352a32 32 0 0 0 45.248-45.248L526.848 509.568l294.144-294.144a32 32 0 0 0-45.248-45.248L459.008 486.912z" p-id="40590"></path><path d="M556.544 795.328L270.784 509.568l294.208-294.08a32 32 0 0 0-45.312-45.248L202.88 486.976a32 32 0 0 0 0.064 45.248l308.352 308.288a32 32 0 0 0 45.248-45.184z" p-id="40591"></path></svg>