<?xml version="1.0" standalone="no"?><!DOCTYPE svg PUBLIC "-//W3C//DTD SVG 1.1//EN" "http://www.w3.org/Graphics/SVG/1.1/DTD/svg11.dtd"><svg t="1743475640005" class="icon" viewBox="0 0 1024 1024" version="1.1" xmlns="http://www.w3.org/2000/svg" p-id="40430" xmlns:xlink="http://www.w3.org/1999/xlink" width="64" height="64"><path d="M564.864 523.648a31.936 31.936 0 0 0 0.192-45.12l-0.192-0.192-308.352-308.352a32 32 0 0 0-45.248 45.248l285.76 285.696-294.144 294.208a32 32 0 0 0 45.248 45.248l316.736-316.736z" p-id="40431"></path><path d="M467.328 215.232l285.76 285.696-294.208 294.144a32 32 0 0 0 45.248 45.248l316.8-316.736a32 32 0 0 0 0.192-45.12l-0.192-0.128-308.352-308.352a32 32 0 0 0-45.248 45.248z" p-id="40432"></path></svg>