<?xml version="1.0" standalone="no"?><!DOCTYPE svg PUBLIC "-//W3C//DTD SVG 1.1//EN" "http://www.w3.org/Graphics/SVG/1.1/DTD/svg11.dtd"><svg t="1743488043376" class="icon" viewBox="0 0 1031 1024" version="1.1" xmlns="http://www.w3.org/2000/svg" p-id="4458" xmlns:xlink="http://www.w3.org/1999/xlink" width="64.4375" height="64"><path d="M989.470419 779.689883H851.666802V588.151521h144.448236a33.223094 33.223094 0 1 0 0-66.34989h-144.448236V269.306114h137.803617a38.51953 38.51953 0 0 0 0-77.039059H851.666802V39.248223a38.51953 38.51953 0 0 0-77.039059 0v153.018832H493.242578V35.011075a33.223094 33.223094 0 1 0-66.34989 0v157.25598H251.917724a33.126796 33.126796 0 0 0-65.098005 0H38.51953a38.51953 38.51953 0 0 0 0 77.039059h147.626097v252.495517H46.030838a33.223094 33.223094 0 1 0 0 66.34989h140.114789v191.538362H38.51953a38.51953 38.51953 0 0 0 0 77.039059h147.626097v127.981138a33.223094 33.223094 0 0 0 66.34989 0V856.728942h174.397171v128.366333a33.223094 33.223094 0 1 0 66.34989 0V856.728942h281.385165v128.751528a38.51953 38.51953 0 0 0 77.039059 0V856.728942h137.803617a38.51953 38.51953 0 0 0 0-77.039059z m-214.842676-510.383769v252.495517H493.242578V269.306114z m-522.132226 0h174.397171v252.495517H252.495517z m0 510.383769V588.151521h174.397171v191.538362z m240.747061 0V588.151521h281.385165v191.538362z" p-id="4459"></path><path d="M185.664133 1.78798m33.126796 0l0.096299 0q33.126796 0 33.126795 33.126796l0 49.593894q0 33.126796-33.126795 33.126796l-0.096299 0q-33.126796 0-33.126796-33.126796l0-49.593894q0-33.126796 33.126796-33.126796Z" p-id="4460"></path></svg>