<?xml version="1.0" standalone="no"?><!DOCTYPE svg PUBLIC "-//W3C//DTD SVG 1.1//EN" "http://www.w3.org/Graphics/SVG/1.1/DTD/svg11.dtd"><svg t="1743676189212" class="icon" viewBox="0 0 1024 1024" version="1.1" xmlns="http://www.w3.org/2000/svg" p-id="12322" xmlns:xlink="http://www.w3.org/1999/xlink" width="64" height="64"><path d="M918.06 766.81L725.67 574.42a233.72 233.72 0 0 0 184.13-298l-14.88-49.26-34.59 38.1c-0.66 0.72-1.35 1.44-2.05 2.14l-40.43 40.4a67.4 67.4 0 0 1-95.32-95.32L763 172c0.7-0.7 1.42-1.38 2.14-2l38.1-34.59L754 120.52a233.64 233.64 0 0 0-301.4 223.6 236.23 236.23 0 0 0 2 30.43l-20.78 19.89-148.3-148.3a75.4 75.4 0 0 0-13-89l-45.33-45.32a41.2 41.2 0 0 0-58.19 0l-59.09 59.09a41.2 41.2 0 0 0 0 58.19l45.33 45.32a75.39 75.39 0 0 0 89 13l147.4 147.4-236.5 226.42a151.31 151.31 0 0 0 104.78 260.43h1.56a150.19 150.19 0 0 0 107.64-46.51l171.7-179.33 224.12 224.1a43.17 43.17 0 0 0 61 0l92.12-92.12a43.17 43.17 0 0 0 0-61zM231.3 222.35l-10.82 10.82a17.22 17.22 0 0 1-24 0L163.25 200l34.85-34.84 33.2 33.2a17.22 17.22 0 0 1 0 23.99z m330.94-2.19a175.06 175.06 0 0 1 121.55-51.37l-2.48 2.47A125.69 125.69 0 0 0 859.06 349l2.48-2.47a175.23 175.23 0 0 1-175.33 172.82q-8.19 0-16.37-0.76l-11.38-11.39-8.4 8.4a174.34 174.34 0 0 1-87.82-47.52c-68.36-68.35-68.36-179.57 0-247.92zM327.05 834.81a92.32 92.32 0 0 1-66.15 28.57h-1a93 93 0 0 1-64.45-160.07l276.8-265A235.37 235.37 0 0 0 592.05 558zM795.44 868L581.15 653.7l69.15-72.22 215.83 215.83z" p-id="12323"></path></svg>