<?xml version="1.0" standalone="no"?><!DOCTYPE svg PUBLIC "-//W3C//DTD SVG 1.1//EN" "http://www.w3.org/Graphics/SVG/1.1/DTD/svg11.dtd"><svg t="1744003465080" class="icon" viewBox="0 0 1024 1024" version="1.1" xmlns="http://www.w3.org/2000/svg" p-id="16075" xmlns:xlink="http://www.w3.org/1999/xlink" width="64" height="64"><path d="M750.933333 102.4a170.666667 170.666667 0 0 1 170.496 163.259733L921.6 273.066667v477.866666a170.666667 170.666667 0 0 1-163.259733 170.496L750.933333 921.6H375.466667a170.666667 170.666667 0 0 1-170.496-163.259733L204.8 750.933333v-55.466666a34.133333 34.133333 0 0 1 68.027733-3.9936l0.238934 3.9936V750.933333a102.4 102.4 0 0 0 96.392533 102.229334L375.466667 853.333333h375.466666a102.4 102.4 0 0 0 102.229334-96.392533L853.333333 750.933333V273.066667a102.4 102.4 0 0 0-96.392533-102.229334L750.933333 170.666667H375.466667a102.4 102.4 0 0 0-102.229334 96.392533L273.066667 273.066667v59.6992a34.133333 34.133333 0 0 1-68.027734 3.959466L204.8 332.8V273.066667a170.666667 170.666667 0 0 1 163.259733-170.496L375.466667 102.4h375.466666z" p-id="16076"></path><path d="M579.106133 364.1344a31.402667 31.402667 0 0 1 1.160534 1.160533l114.210133 120.285867a34.065067 34.065067 0 0 1 9.250133 26.4192 34.065067 34.065067 0 0 1-9.216 26.4192L580.266667 658.705067a31.402667 31.402667 0 0 1-45.499734 0l-0.443733-0.477867a34.133333 34.133333 0 0 1 0-47.0016L596.104533 546.133333H136.533333a34.133333 34.133333 0 0 1 0-68.266666h459.5712l-61.781333-65.092267a34.133333 34.133333 0 0 1 0-47.0016l0.443733-0.477867a31.402667 31.402667 0 0 1 44.373334-1.160533z" p-id="16077"></path></svg>