<?xml version="1.0" standalone="no"?><!DOCTYPE svg PUBLIC "-//W3C//DTD SVG 1.1//EN" "http://www.w3.org/Graphics/SVG/1.1/DTD/svg11.dtd"><svg t="1741866797086" class="icon" viewBox="0 0 1024 1024" version="1.1" xmlns="http://www.w3.org/2000/svg" p-id="12191" xmlns:xlink="http://www.w3.org/1999/xlink" width="200" height="200"><path d="M430.848 103.978667A416 416 0 0 1 928 512a32 32 0 0 1-64 0A352 352 0 1 0 512 864a32 32 0 0 1 0 64 416 416 0 0 1-81.152-824.021333z" p-id="12192"></path><path d="M121.6 384a32 32 0 0 1 32-32h716.8a32 32 0 0 1 0 64H153.6A32 32 0 0 1 121.6 384zM121.6 640a32 32 0 0 1 32-32h337.066667a32 32 0 0 1 0 64H153.6a32 32 0 0 1-32-32z" p-id="12193"></path><path d="M507.605333 100.864a32 32 0 0 1 10.24 44.074667 693.333333 693.333333 0 0 0 0 734.122666 32 32 0 0 1-54.314666 33.877334 757.333333 757.333333 0 0 1 0-801.877334 32 32 0 0 1 44.074666-10.24z" p-id="12194"></path><path d="M516.394667 100.864a32 32 0 0 1 44.074666 10.197333 756.650667 756.650667 0 0 1 114.688 384 32 32 0 0 1-64 1.450667 692.693333 692.693333 0 0 0-104.96-351.573333 32 32 0 0 1 10.197334-44.074667zM654.848 654.848a160 160 0 1 1 226.304 226.304 160 160 0 0 1-226.304-226.304zM768 672a96 96 0 1 0 0 192 96 96 0 0 0 0-192z" p-id="12195"></path><path d="M839.253333 839.253333a32 32 0 0 1 45.226667 0l76.8 76.8a32 32 0 1 1-45.226667 45.226667l-76.8-76.8a32 32 0 0 1 0-45.226667z" p-id="12196"></path></svg>