<?xml version="1.0" standalone="no"?><!DOCTYPE svg PUBLIC "-//W3C//DTD SVG 1.1//EN" "http://www.w3.org/Graphics/SVG/1.1/DTD/svg11.dtd"><svg t="1741866700793" class="icon" viewBox="0 0 1024 1024" version="1.1" xmlns="http://www.w3.org/2000/svg" p-id="9045" xmlns:xlink="http://www.w3.org/1999/xlink" width="200" height="200"><path d="M512 108.16c252.16 0 458.24 176 458.24 396.16 0 1.92 0 3.84-0.64 6.4 0 1.92-0.64 3.84-1.92 5.76-0.64 1.92-1.28 3.84-2.56 5.76-1.28 1.28-2.56 3.2-3.84 4.48-1.92 1.92-3.2 3.2-5.12 3.84-1.92 1.28-3.84 2.56-5.76 3.2l-5.76 1.92c-1.92 0.64-4.48 0.64-6.4 0.64s-3.84 0-6.4-0.64l-5.76-1.92a25.92 25.92 0 0 1-5.76-3.2 11.968 11.968 0 0 1-4.48-3.84 11.968 11.968 0 0 1-3.84-4.48 25.92 25.92 0 0 1-3.2-5.76l-1.92-5.76c-0.64-2.56-0.64-4.48-0.64-6.4 0-182.4-175.36-332.16-394.24-332.16-219.52 0-394.88 149.76-394.88 332.16 0 69.76 25.6 136.96 73.6 192.64 2.56 3.2 4.48 6.4 5.76 9.6 1.28 3.84 1.92 7.68 1.92 11.52v141.44l115.84-60.16c3.2-1.92 7.04-3.2 10.88-3.84 4.48 0 8.32 0 12.16 1.28l4.48 1.28c8.32 3.84 17.28 7.68 25.6 11.52 43.52 17.92 79.36 26.24 124.16 26.24 1.92 0 3.84 0.64 6.4 0.64l5.76 1.92c1.92 0.64 3.84 1.92 5.76 3.2 1.28 1.28 3.2 2.56 4.48 3.84 1.28 1.28 3.2 3.2 3.84 5.12 1.28 1.28 2.56 3.2 3.2 5.12 0.64 1.92 1.28 3.84 1.92 6.4 0 1.92 0.64 3.84 0.64 5.76 0 2.56-0.64 4.48-0.64 6.4-0.64 1.92-1.28 3.84-1.92 6.4-0.64 1.92-1.92 3.2-3.2 5.12-0.64 1.92-2.56 3.2-3.84 5.12-1.28 1.28-3.2 2.56-4.48 3.84-1.92 1.28-3.84 1.92-5.76 3.2-1.92 0.64-3.84 1.28-5.76 1.28-2.56 0.64-4.48 0.64-6.4 0.64-54.4 0-98.56-10.24-148.48-31.36a318.08 318.08 0 0 1-14.08-5.76l1.28 0.64-117.76 60.8c-3.2 1.92-6.4 3.2-8.96 3.84-3.2 1.28-6.4 1.92-9.6 1.92-3.2 0.64-6.4 0.64-9.6 0.64-3.84-0.64-7.04-0.64-10.24-1.92-2.56-0.64-5.76-1.92-8.96-3.2-2.56-1.28-5.76-2.56-8.32-4.48-2.56-1.92-5.12-4.48-7.68-6.4l-5.76-7.68-3.2-5.12a54.336 54.336 0 0 1-5.76-24.32V729.6l-1.92-2.56C84.48 666.24 56.32 593.92 53.12 518.4v-14.08C53.12 284.16 259.2 108.16 512 108.16z m256 448c19.84 0 35.84 16.64 35.84 36.48v108.8h108.8c1.92 0 3.84 0 6.4 0.64 1.92 0 3.84 0.64 5.76 1.28s3.2 1.92 5.12 2.56c1.92 1.28 3.84 1.92 5.12 3.2 1.28 1.28 3.2 2.56 4.48 4.48 1.28 1.28 2.56 2.56 3.84 4.48 0.64 1.92 1.92 3.2 2.56 5.12l1.92 5.76 0.64 4.48 0.64 4.48c0 19.84-16 36.48-36.48 36.48h-108.8v108.16c0 2.56 0 4.48-0.64 6.4 0 1.92-0.64 3.84-1.28 5.76s-1.28 3.84-2.56 5.12c-0.64 1.92-1.92 3.84-3.2 5.12-1.28 1.92-2.56 3.2-3.84 4.48-1.92 1.28-3.2 2.56-5.12 3.84-1.28 1.28-3.2 1.92-5.12 2.56-1.92 1.28-3.84 1.92-5.76 1.92l-4.48 1.28H768c-2.56 0-5.12 0-7.68-0.64l-6.4-1.92c-2.56-1.28-4.48-1.92-6.4-3.2-1.92-1.28-3.84-3.2-5.76-4.48-1.28-1.92-3.2-3.84-4.48-5.76-1.28-1.92-1.92-3.84-3.2-6.4l-1.92-6.4c-0.64-2.56-0.64-5.12-0.64-7.68V774.4h-108.8c-1.92-0.64-3.84-0.64-6.4-0.64l-5.76-1.92c-1.92-0.64-3.2-1.28-5.12-1.92a35.52 35.52 0 0 1-5.12-3.84c-1.28-0.64-3.2-2.56-4.48-3.84-1.28-1.28-2.56-3.2-3.84-4.48-0.64-1.92-1.92-3.84-2.56-5.76a29.76 29.76 0 0 1-1.92-5.76l-0.64-4.48-0.64-3.84c0-19.84 16.64-36.48 36.48-36.48h108.8v-108.8c0-1.92 0-3.84 0.64-5.76 0-1.92 0.64-3.84 1.28-5.76s1.28-3.84 2.56-5.76c0.64-1.92 1.92-3.2 3.2-5.12 1.28-1.28 2.56-2.56 3.84-4.48 1.92-1.28 3.2-2.56 5.12-3.2 1.28-1.28 3.2-1.92 5.12-3.2l5.76-1.92 4.48-0.64h3.2l1.28-0.64z m-188.8 10.88c1.92 0 3.84 0 6.4 0.64l5.76 1.92c1.92 0.64 3.84 1.92 5.76 3.2 1.28 0.64 3.2 1.92 4.48 3.84 1.92 1.28 3.2 3.2 3.84 4.48 1.28 1.92 2.56 3.84 3.2 5.76l1.92 5.76c0.64 2.56 0.64 4.48 0.64 6.4s0 4.48-0.64 6.4l-1.92 5.76c-0.64 1.92-1.92 3.84-3.2 5.76-0.64 1.92-1.92 3.2-3.84 5.12-1.28 1.28-3.2 2.56-4.48 3.84-1.92 1.28-3.84 1.92-5.76 2.56-1.92 1.28-3.84 1.92-5.76 1.92-2.56 0.64-4.48 0.64-6.4 0.64h-288c-2.56 0-4.48 0-6.4-0.64-1.92 0-4.48-0.64-6.4-1.92a19.2 19.2 0 0 1-5.12-2.56c-1.92-1.28-3.2-2.56-5.12-3.84-1.28-1.92-2.56-3.2-3.84-5.12-1.28-1.92-1.92-3.84-3.2-5.76-0.64-1.92-1.28-3.84-1.28-5.76-0.64-1.92-0.64-4.48-0.64-6.4s0-3.84 0.64-6.4c0-1.92 0.64-3.84 1.28-5.76 1.28-1.92 1.92-3.84 3.2-5.76 1.28-1.28 2.56-3.2 3.84-4.48 1.92-1.92 3.2-3.2 5.12-3.84 1.92-1.28 3.2-2.56 5.12-3.2l6.4-1.92c1.92-0.64 3.84-0.64 6.4-0.64h288z m170.88-170.88c1.92 0 3.84 0.64 5.76 0.64l6.4 1.92c1.92 1.28 3.84 1.92 5.12 3.2 1.92 1.28 3.84 2.56 5.12 3.84 1.28 1.28 2.56 3.2 3.84 5.12 1.28 1.28 1.92 3.2 3.2 5.12l1.92 6.4c0 1.92 0.64 3.84 0.64 5.76 0 2.56-0.64 4.48-0.64 6.4l-1.92 6.4c-1.28 1.92-1.92 3.84-3.2 5.12-1.28 1.92-2.56 3.84-3.84 5.12-1.28 1.28-3.2 2.56-5.12 3.84-1.28 1.28-3.2 1.92-5.12 3.2l-6.4 1.92H284.8l-6.4-1.92c-1.92-1.28-3.2-1.92-5.12-3.2-1.92-1.28-3.2-2.56-5.12-3.84-1.28-1.28-2.56-3.2-3.84-5.12-1.28-1.28-1.92-3.2-3.2-5.12a22.72 22.72 0 0 1-1.28-6.4c-0.64-1.92-0.64-3.84-0.64-6.4 0-1.92 0-3.84 0.64-5.76 0-1.92 0.64-4.48 1.28-6.4 1.28-1.92 1.92-3.84 3.2-5.12 1.28-1.92 2.56-3.84 3.84-5.12 1.92-1.28 3.2-2.56 5.12-3.84 1.92-1.28 3.2-1.92 5.12-3.2l6.4-1.92c1.92 0 3.84-0.64 6.4-0.64h458.88z" p-id="9046"></path></svg>