<?xml version="1.0" standalone="no"?><!DOCTYPE svg PUBLIC "-//W3C//DTD SVG 1.1//EN" "http://www.w3.org/Graphics/SVG/1.1/DTD/svg11.dtd"><svg t="1743512935812" class="icon" viewBox="0 0 1024 1024" version="1.1" xmlns="http://www.w3.org/2000/svg" p-id="10175" xmlns:xlink="http://www.w3.org/1999/xlink" width="64" height="64"><path d="M640 928a32 32 0 0 1-32-32v-32a32 32 0 0 1 32-32h256a32 32 0 0 1 32 32v32a32 32 0 0 1-32 32z m-201.984 0a32 32 0 0 1-29.824-20.416L192.128 345.92v550.4a32 32 0 0 1-32 32h-32a32 32 0 0 1-32-32v-768a32 32 0 0 1 32-32h41.984a32 32 0 0 1 30.016 20.608l216.064 561.728v-550.4a32 32 0 0 1 32-32h32a32 32 0 0 1 32 32v768a32 32 0 0 1-32 32z m425.984-192H640a32 32 0 0 1-32-32V128a32 32 0 0 1 32-32h256a32 32 0 0 1 32 32v576a32 32 0 0 1-32 32zM704 207.936v416a15.936 15.936 0 0 0 16 15.936h96a15.936 15.936 0 0 0 15.936-15.936v-416A16.064 16.064 0 0 0 816 192h-96a16.064 16.064 0 0 0-16 15.872z" p-id="10176"></path></svg>