<?xml version="1.0" standalone="no"?><!DOCTYPE svg PUBLIC "-//W3C//DTD SVG 1.1//EN" "http://www.w3.org/Graphics/SVG/1.1/DTD/svg11.dtd"><svg t="1743475411964" class="icon" viewBox="0 0 1024 1024" version="1.1" xmlns="http://www.w3.org/2000/svg" p-id="35945" xmlns:xlink="http://www.w3.org/1999/xlink" width="64" height="64"><path d="M299.885714 916.992v-291.84a36.571429 36.571429 0 0 1 13.897143-28.672l527.067429-416.914286L108.617143 339.456l132.096 133.705143a36.571429 36.571429 0 0 1 0 51.712 35.766857 35.766857 0 0 1-51.2 0L10.532571 343.771429a36.571429 36.571429 0 0 1-9.069714-36.132572 36.571429 36.571429 0 0 1 27.062857-25.453714l948.004572-207.36A36.571429 36.571429 0 0 1 987.428571 73.142857a35.84 35.84 0 0 1 28.16 13.531429 36.571429 36.571429 0 0 1 8.411429 25.673143v0.877714a36.571429 36.571429 0 0 1-3.584 12.726857l-384.731429 781.970286a36.571429 36.571429 0 0 1-26.550857 19.821714 35.181714 35.181714 0 0 1-5.851428 0.438857 35.913143 35.913143 0 0 1-25.526857-10.678857L373.028571 710.070857v206.921143a36.571429 36.571429 0 1 1-73.142857 0z m293.888-87.186286l291.108572-592.091428-492.178286 389.193143z" p-id="35946"></path></svg>