<?xml version="1.0" standalone="no"?><!DOCTYPE svg PUBLIC "-//W3C//DTD SVG 1.1//EN" "http://www.w3.org/Graphics/SVG/1.1/DTD/svg11.dtd"><svg t="1743474112604" class="icon" viewBox="0 0 1024 1024" version="1.1" xmlns="http://www.w3.org/2000/svg" p-id="4732" xmlns:xlink="http://www.w3.org/1999/xlink" width="64" height="64"><path d="M1015.66164 329.59l-0.51-0.51v-1.59c-0.51-1.58-0.51-3.16-1.04-4.21l-94.14-230.9c-12.12-36.81-46.3-65.76-88.37-65.76l-640.7-0.52c-41.02 0-73.62 27.35-85.21 63.62v0.54L8.93164 324.85c0 0.51-0.51 2.12-0.51 3.67v1.05c-5.66 18.22-8.5 37.2-8.42 56.27 0 65.74 34.19 125.71 89.42 157.24l6.3 3.7c22.09 11.05 47.88 17.38 76.25 17.38 51.02 0 130.45-34.72 163.06-75.2l6.3-8.42 6.3 8.42c59.97 52.06 114.67 69.44 165.15 70.48 61.18-0.52 119.5-25.98 161.48-70.48l6.3-8.42 6.3 8.42c32.6 40.5 114.13 75.2 164.64 75.2 31.02 0 58.9-6.84 82.05-19.98 55.23-31.04 89.41-92.06 89.41-157.8 1.23-19.22-1.25-38.5-7.3-56.79zM911.00164 482.63c-16.3 8.95-35.76 14.21-58.9 14.21-43.11 0-115.71-32.09-138.34-70.48l-0.51-0.51v-0.51a36.693 36.693 0 0 0-7.37-12.63c-4.21-4.74-12.09-13.14-25.23-13.14-10 0-20 6.3-25.24 13.14-3.69 4.21-5.79 8.95-7.37 11.58v1.04c-22.63 37.86-92.58 72.58-135.18 72.58-42.6 0-116.25-35.77-138.85-73.65v-0.54l-0.54-0.51c-1.04-3.16-5.25-8.42-8.42-11.55-5.79-6.84-13.14-13.68-24.21-13.68-10 0-18.42 5.79-23.14 11.58-4.21 4.74-7.35 11.05-8.93 14.18v0.54l-0.54 0.53c-22.6 37.86-86.25 68.37-128.88 68.91-21.56 0-40.51-4.21-55.74-12.63l-2.12-1.05c-40.51-21.56-57.32-52.6-57.32-100.46 0-14.21 2.09-28.42 6.83-42.09 0-0.51 0.54-1.05 0.54-2.12v-0.53l87.83-211.43c5.79-17.88 12.12-26.81 32.61-26.81h635.38c8.93 0.51 22.09 1.58 31.02 27.88l94.16 213.55v0.51c0 1.05 0.51 1.58 0.51 3.17a143.39 143.39 0 0 1 6.83 42.07c0.55 47.86-8.91 76.25-48.88 98.85z m-56.28 511.28H171.99164c-42.07 0-76.25-27.35-76.25-68.9V666.74c0-23.14 12.12-42.09 35.26-42.09s36.3 18.93 36.3 42.09v257.73h688.5V666.74c0-23.14 13.14-42.09 36.3-42.09 23.17 0 38.93 18.93 38.93 42.09v258.24c-0.57 41.58-34.24 68.93-76.31 68.93z m0 0" p-id="4733"></path><path d="M685.36164 262.27H338.19164c-18.93 0-34.18-15.26-34.18-34.21 0-18.93 15.25-34.18 34.18-34.18h347.15c18.93 0 34.18 15.25 34.18 34.18 0.03 9.07-3.56 17.78-9.97 24.2a34.052 34.052 0 0 1-24.19 10.01z m0 0" p-id="4734"></path></svg>