<?xml version="1.0" standalone="no"?><!DOCTYPE svg PUBLIC "-//W3C//DTD SVG 1.1//EN" "http://www.w3.org/Graphics/SVG/1.1/DTD/svg11.dtd"><svg t="1743475929204" class="icon" viewBox="0 0 1024 1024" version="1.1" xmlns="http://www.w3.org/2000/svg" p-id="52120" xmlns:xlink="http://www.w3.org/1999/xlink" width="64" height="64"><path d="M227.84 925.184c-33.28 0-59.904-26.624-59.904-59.904V160.256c0-33.28 26.624-59.904 59.904-59.904h382.976c15.872 0 28.672 15.36 28.672 31.232 0 15.872-12.8 31.232-28.672 31.232H268.8c-21.504 0-38.912 17.408-38.912 38.912V824.32c0 21.504 17.408 38.912 38.912 38.912h486.4c21.504 0 38.912-17.408 38.912-38.912V421.888c0-15.872 15.36-28.672 31.232-28.672 15.872 0 31.232 12.8 31.232 28.672V865.28c0 33.28-26.624 59.904-59.904 59.904H227.84z" p-id="52121"></path><path d="M549.888 514.56c-7.68 0-14.848-3.072-19.968-8.192L357.376 333.312c-10.752-11.264-10.752-29.184 0.512-40.448 5.12-5.12 12.288-8.192 19.968-8.192s14.848 3.072 19.968 8.192L549.888 445.44l259.584-259.584c5.12-5.12 12.288-7.68 19.456-7.68 7.68 0 15.36 3.072 20.48 8.704 10.752 11.264 10.752 28.672 0 39.424l-279.552 279.552c-5.12 5.632-12.288 8.704-19.968 8.704z" p-id="52122"></path></svg>